<svg width="31" height="31" viewBox="0 0 31 31" xmlns="http://www.w3.org/2000/svg"><title>00CA72D4-CCCD-4B12-A63A-66FEB3538435</title><g fill="#4A4A4A" fill-rule="evenodd"><path d="M19.76 9.017c-.208 0-.612.106-1.21.32-.6.214-.899.83-.899 1.852v2.328h-2v1.5h2v7.5h1.5v-7.5h2.172l.36-1.5H19.15v-2.375l.086-.305c.057-.203.263-.305.617-.305h1.297v-1.5h-1.297l-.023-.008a.237.237 0 0 0-.07-.007zm0-1c.021 0 .042.002.063.007.02.006.042.008.062.008h1.282c.27 0 .502.097.695.29.193.192.289.429.289.71v1.5c0 .271-.099.505-.297.703a.961.961 0 0 1-.703.297h-1v.985h1.531c.157 0 .305.034.446.101.14.068.257.17.351.305.094.125.156.263.188.414a.875.875 0 0 1-.032.46l-.343 1.5a.996.996 0 0 1-.36.517.976.976 0 0 1-.61.203h-1.171V22.5a.953.953 0 0 1-.297.711.974.974 0 0 1-.703.289h-1.5a.966.966 0 0 1-.71-.289.966.966 0 0 1-.29-.711v-6.484h-1a.961.961 0 0 1-.703-.297.961.961 0 0 1-.297-.703v-1.5a.95.95 0 0 1 .078-.383 1.03 1.03 0 0 1 .54-.54.95.95 0 0 1 .382-.077h1v-1.328c0-.771.151-1.368.453-1.79.302-.421.61-.726.922-.914a2.94 2.94 0 0 1 .984-.382c.323-.058.573-.086.75-.086z"/><path d="M15.485 30.47C7.21 30.47.5 23.763.5 15.486.5 7.21 7.21.5 15.485.5c8.277 0 14.986 6.71 14.986 14.985 0 8.277-6.71 14.986-14.986 14.986zm0-1c7.724 0 13.986-6.26 13.986-13.985C29.47 7.761 23.209 1.5 15.485 1.5 7.761 1.5 1.5 7.761 1.5 15.485c0 7.724 6.261 13.986 13.985 13.986z" fill-rule="nonzero"/></g></svg>