<svg width="31" height="31" viewBox="0 0 31 31" xmlns="http://www.w3.org/2000/svg"><title>A1070168-2990-459A-9FC1-CAB73BE6E582</title><g fill="#4A4A4A" fill-rule="evenodd"><path d="M20.297 23.516h-9.11a3.425 3.425 0 0 1-2.422-1 3.534 3.534 0 0 1-.742-1.094 3.315 3.315 0 0 1-.273-1.344v-8.656c0-.469.091-.912.273-1.328A3.534 3.534 0 0 1 9.86 8.258c.417-.182.86-.274 1.329-.274h9.109c.469 0 .911.092 1.328.274.417.182.781.43 1.094.742.312.313.56.677.742 1.094.182.416.273.86.273 1.328v8.656c0 .48-.09.927-.273 1.344-.182.417-.43.781-.742 1.094a3.425 3.425 0 0 1-2.422 1zm-9.11-14.391c-.625 0-1.164.227-1.617.68-.453.453-.68.992-.68 1.617v8.656a2.2 2.2 0 0 0 .68 1.625c.453.448.992.672 1.617.672h9.11c.625 0 1.164-.224 1.617-.672a2.2 2.2 0 0 0 .68-1.625v-8.656c0-.625-.227-1.164-.68-1.617a2.209 2.209 0 0 0-1.617-.68h-9.11zm7.75 1.734c0-.166.058-.304.172-.414a.569.569 0 0 1 .407-.164h.984a.561.561 0 0 1 .563.578v.97a.569.569 0 0 1-.165.405.53.53 0 0 1-.398.172h-.984a.555.555 0 0 1-.407-.172.555.555 0 0 1-.172-.406v-.969zm-3.203 2.97c-.656 0-1.218.23-1.687.694a2.294 2.294 0 0 0-.703 1.696c0 .656.234 1.218.703 1.687a2.301 2.301 0 0 0 1.687.703c.667 0 1.232-.234 1.696-.703a2.314 2.314 0 0 0 .695-1.687c0-.657-.232-1.219-.695-1.688a2.294 2.294 0 0 0-1.696-.703zm-2.445-.157c.308-.301.667-.54 1.078-.719a3.4 3.4 0 0 1 1.367-.281c.49 0 .95.094 1.383.281.411.178.77.418 1.078.719h4.394v1.14h-3.603l.014.032c.188.427.281.885.281 1.375s-.093.948-.281 1.375c-.188.427-.44.802-.758 1.125a3.429 3.429 0 0 1-1.125.758 3.522 3.522 0 0 1-1.383.273c-.479 0-.935-.091-1.367-.273a3.429 3.429 0 0 1-1.125-.758 3.721 3.721 0 0 1-.758-1.125 3.382 3.382 0 0 1-.28-1.375 3.382 3.382 0 0 1 .294-1.407H8.891v-1.14h4.398z"/><path d="M15.485 30.486c-8.284 0-15-6.716-15-15C.484 7.2 7.2.483 15.484.483c8.285 0 15.001 6.717 15.001 15.001 0 8.285-6.716 15.001-15 15.001zm0-.968c7.75 0 14.033-6.283 14.033-14.033 0-7.75-6.283-14.032-14.033-14.032-7.75 0-14.032 6.283-14.032 14.032 0 7.75 6.283 14.033 14.032 14.033z" fill-rule="nonzero"/></g></svg>